<svg xmlns="http://www.w3.org/2000/svg" width="1200" height="630" viewBox="0 0 1200 630">
  <rect width="1200" height="630" fill="#f2ede2"/>
  <rect x="664" y="68" width="400" height="430" fill="none" stroke="#6e735c" stroke-width="2"/>
  <rect x="600" y="122" width="400" height="430" fill="none" stroke="#192019" stroke-opacity=".35" stroke-width="2"/>
  <g fill="#192019" font-family="Georgia,serif">
    <text x="92" y="190" font-size="84" letter-spacing="-5">Портреты,</text>
    <text x="92" y="272" font-size="72" letter-spacing="-5" font-style="italic">семейные истории,</text>
    <text x="92" y="354" font-size="84" letter-spacing="-5">love-story.</text>
    <text x="718" y="296" font-size="78" letter-spacing="-5">цифра</text>
    <text x="819" y="354" font-size="58" letter-spacing="-4" font-style="italic" fill="#9e3e2e">и</text>
    <text x="730" y="415" font-size="78" letter-spacing="-5">плёнка</text>
  </g>
  <g font-family="Arial,sans-serif" font-size="18" font-weight="700" letter-spacing="3" fill="#475047">
    <text x="94" y="95">ФОТОГРАФ · МИНСК</text>
    <text x="94" y="500">OLGA TSYMBAREVICH</text>
    <text x="94" y="538">ПОРТРЕТЫ · СЕМЕЙНЫЕ ИСТОРИИ · LOVE-STORY</text>
    <text x="716" y="100">ФОТОГРАФИЯ / 35 MM</text>
  </g>
  <g fill="#192019" fill-opacity=".22">
    <rect x="632" y="158" width="11" height="12"/><rect x="632" y="182" width="11" height="12"/><rect x="632" y="206" width="11" height="12"/><rect x="632" y="230" width="11" height="12"/><rect x="632" y="254" width="11" height="12"/><rect x="632" y="278" width="11" height="12"/><rect x="632" y="302" width="11" height="12"/><rect x="632" y="326" width="11" height="12"/><rect x="632" y="350" width="11" height="12"/><rect x="632" y="374" width="11" height="12"/><rect x="632" y="398" width="11" height="12"/><rect x="632" y="422" width="11" height="12"/>
    <rect x="1020" y="178" width="11" height="12"/><rect x="1020" y="202" width="11" height="12"/><rect x="1020" y="226" width="11" height="12"/><rect x="1020" y="250" width="11" height="12"/><rect x="1020" y="274" width="11" height="12"/><rect x="1020" y="298" width="11" height="12"/><rect x="1020" y="322" width="11" height="12"/><rect x="1020" y="346" width="11" height="12"/><rect x="1020" y="370" width="11" height="12"/><rect x="1020" y="394" width="11" height="12"/>
  </g>
  <circle cx="1092" cy="72" r="8" fill="#9e3e2e"/>
</svg>
